<svg width="590" height="524" viewBox="0 0 590 524" fill="none" xmlns="http://www.w3.org/2000/svg">
<path d="M392.362 66.8938C366.614 79.9728 348.454 101.97 326.447 119.629C299.075 141.507 265.76 156.677 229.782 163.645C200.282 169.315 169.46 169.399 141.034 178.317C85.5738 195.599 47.5896 246.888 46.6338 299.036C45.678 351.185 79.0838 401.74 128.184 430.33C144.906 440.071 163.212 447.476 182.464 452.285C218.572 461.309 256.863 460.91 294.174 457.462C358.626 451.499 426.193 418.99 466.82 373.161C484.93 352.678 500.236 330.356 512.415 306.666C532.536 267.711 543.965 225.662 546.069 182.844C547.78 146.164 546.069 105.502 513.3 78.7676C480.532 52.0331 430.771 47.3695 392.362 66.8938Z" fill="#F9F9F9" fill-opacity="0.02"/>
<path d="M433.183 484.472C479.713 484.472 517.433 475.45 517.433 464.319C517.433 453.189 479.713 444.166 433.183 444.166C386.653 444.166 348.934 453.189 348.934 464.319C348.934 475.45 386.653 484.472 433.183 484.472Z" fill="#ECECEC"/>
<path d="M350.413 71.5784H101.634C95.8011 71.5784 91.0728 75.7778 91.0728 80.958V204.821C91.0728 210.001 95.8011 214.201 101.634 214.201H350.413C356.246 214.201 360.974 210.001 360.974 204.821V80.958C360.974 75.7778 356.246 71.5784 350.413 71.5784Z" fill="white"/>
<path d="M360.974 80.9581V84.668H91.0728V80.9581C91.0727 78.4657 92.1835 76.0745 94.1624 74.3071C96.1413 72.5398 98.8274 71.54 101.634 71.5261H350.46C351.849 71.5302 353.222 71.7777 354.503 72.2543C355.783 72.7309 356.945 73.4273 357.922 74.3036C358.899 75.1799 359.671 76.2187 360.195 77.3607C360.719 78.5026 360.983 79.7251 360.974 80.9581Z" fill="#B9FF66"/>
<path d="M350.413 71.5784H101.634C95.8011 71.5784 91.0728 75.7778 91.0728 80.958V204.821C91.0728 210.001 95.8011 214.201 101.634 214.201H350.413C356.246 214.201 360.974 210.001 360.974 204.821V80.958C360.974 75.7778 356.246 71.5784 350.413 71.5784Z" stroke="#263238" stroke-width="1.52" stroke-linecap="round" stroke-linejoin="round"/>
<path d="M360.974 80.9581V84.668H91.0728V80.9581C91.0727 78.4657 92.1835 76.0745 94.1624 74.3071C96.1413 72.5398 98.8274 71.54 101.634 71.5261H350.46C351.849 71.5302 353.222 71.7777 354.503 72.2543C355.783 72.7309 356.945 73.4273 357.922 74.3036C358.899 75.1799 359.671 76.2187 360.195 77.3607C360.719 78.5026 360.983 79.7251 360.974 80.9581V80.9581Z" stroke="#263238" stroke-width="1.52" stroke-linecap="round" stroke-linejoin="round"/>
<path d="M121.387 78.118C121.389 78.5931 121.233 79.0581 120.937 79.4541C120.642 79.8502 120.22 80.1594 119.727 80.3427C119.233 80.5259 118.69 80.5749 118.165 80.4835C117.64 80.3921 117.157 80.1644 116.778 79.8291C116.399 79.4939 116.14 79.0663 116.035 78.6005C115.93 78.1347 115.983 77.6516 116.187 77.2125C116.391 76.7733 116.737 76.3979 117.182 76.1337C117.627 75.8695 118.15 75.7285 118.685 75.7285C119.399 75.7285 120.085 75.9799 120.591 76.4277C121.098 76.8755 121.384 77.4833 121.387 78.118Z" fill="#263238"/>
<path d="M135.488 78.118C135.49 78.5931 135.334 79.0581 135.038 79.4541C134.743 79.8502 134.322 80.1594 133.828 80.3427C133.334 80.5259 132.791 80.5749 132.266 80.4835C131.741 80.3921 131.258 80.1644 130.879 79.8291C130.5 79.4939 130.242 79.0663 130.136 78.6005C130.031 78.1347 130.084 77.6516 130.288 77.2125C130.492 76.7733 130.839 76.3979 131.283 76.1337C131.728 75.8695 132.251 75.7285 132.786 75.7285C133.5 75.7285 134.186 75.9799 134.692 76.4277C135.199 76.8755 135.485 77.4833 135.488 78.118Z" fill="#263238"/>
<path d="M146.886 80.5179C148.379 80.5179 149.588 79.4434 149.588 78.1179C149.588 76.7925 148.379 75.718 146.886 75.718C145.394 75.718 144.184 76.7925 144.184 78.1179C144.184 79.4434 145.394 80.5179 146.886 80.5179Z" fill="#263238"/>
<path d="M187.738 95.0537H111.427C109.023 95.0537 107.073 96.7851 107.073 98.9208V131.524C107.073 133.66 109.023 135.391 111.427 135.391H187.738C190.143 135.391 192.092 133.66 192.092 131.524V98.9208C192.092 96.7851 190.143 95.0537 187.738 95.0537Z" stroke="#263238" stroke-width="1.52" stroke-linecap="round" stroke-linejoin="round"/>
<path d="M112.077 130.319H185.791" stroke="#263238" stroke-width="1.52" stroke-linecap="round" stroke-linejoin="round"/>
<path d="M126.107 122.616H117.552V130.214H126.107V122.616Z" fill="#B9FF66" stroke="#263238" stroke-width="1.52" stroke-miterlimit="10"/>
<path d="M138.627 112.629H130.072V130.319H138.627V112.629Z" fill="#B9FF66" stroke="#263238" stroke-width="1.52" stroke-miterlimit="10"/>
<path d="M152.728 115.668H144.173V130.497H152.728V115.668Z" fill="#B9FF66" stroke="#263238" stroke-width="1.52" stroke-miterlimit="10"/>
<path d="M167.549 100.901H158.994V129.983H167.549V100.901Z" fill="#B9FF66" stroke="#263238" stroke-width="1.52" stroke-miterlimit="10"/>
<path d="M182.357 101.132H173.802V130.214H182.357V101.132Z" fill="#B9FF66" stroke="#263238" stroke-width="1.52" stroke-miterlimit="10"/>
<path d="M297.502 137.477C310.711 137.477 321.42 127.966 321.42 116.234C321.42 104.502 310.711 94.9907 297.502 94.9907C284.292 94.9907 273.583 104.502 273.583 116.234C273.583 127.966 284.292 137.477 297.502 137.477Z" fill="#B9FF66" stroke="#263238" stroke-width="1.52" stroke-miterlimit="10"/>
<path d="M299.461 129.48V131.66H295.449V129.48C293.801 129.126 292.344 128.274 291.327 127.069C290.311 125.864 289.799 124.382 289.879 122.878V121.893L294.422 121.453V122.501C294.422 124.523 295.602 125.75 297.455 125.75C297.857 125.779 298.262 125.731 298.641 125.609C299.02 125.487 299.365 125.293 299.652 125.041C299.939 124.789 300.161 124.485 300.303 124.15C300.446 123.814 300.504 123.456 300.476 123.098C300.476 121.159 298.434 119.493 296.027 117.722C293.172 115.626 290.328 113.132 290.328 109.61C290.328 106.089 292.192 103.71 295.449 102.997V100.807H299.461V102.976C302.753 103.658 304.665 106.12 304.665 109.631V110.344L300.122 110.774V110.04C300.122 107.944 299.19 106.791 297.538 106.791C295.886 106.791 294.953 107.703 294.953 109.443C294.953 111.381 297.054 113.006 299.414 114.819C302.222 116.915 305.113 119.409 305.113 122.93C305.182 124.437 304.655 125.917 303.622 127.114C302.589 128.311 301.117 129.148 299.461 129.48Z" fill="#263238"/>
<path d="M105.091 155.995H112.076" stroke="#263238" stroke-width="1.52" stroke-linecap="round" stroke-linejoin="round"/>
<path d="M105.091 167.984H112.076" stroke="#263238" stroke-width="1.52" stroke-linecap="round" stroke-linejoin="round"/>
<path d="M105.091 179.983H112.076" stroke="#263238" stroke-width="1.52" stroke-linecap="round" stroke-linejoin="round"/>
<path d="M105.091 191.973H112.076" stroke="#263238" stroke-width="1.52" stroke-linecap="round" stroke-linejoin="round"/>
<path d="M127.476 201.027V196.207" stroke="#263238" stroke-width="1.52" stroke-linecap="round" stroke-linejoin="round"/>
<path d="M138.544 201.027V196.207" stroke="#263238" stroke-width="1.52" stroke-linecap="round" stroke-linejoin="round"/>
<path d="M149.612 201.027V196.207" stroke="#263238" stroke-width="1.52" stroke-linecap="round" stroke-linejoin="round"/>
<path d="M160.693 201.027V196.207" stroke="#263238" stroke-width="1.52" stroke-linecap="round" stroke-linejoin="round"/>
<path d="M171.761 201.027V196.207" stroke="#263238" stroke-width="1.52" stroke-linecap="round" stroke-linejoin="round"/>
<path d="M182.829 201.027V196.207" stroke="#263238" stroke-width="1.52" stroke-linecap="round" stroke-linejoin="round"/>
<path d="M193.898 201.027V196.207" stroke="#263238" stroke-width="1.52" stroke-linecap="round" stroke-linejoin="round"/>
<path d="M204.978 201.027V196.207" stroke="#263238" stroke-width="1.52" stroke-linecap="round" stroke-linejoin="round"/>
<path d="M216.047 201.027V196.207" stroke="#263238" stroke-width="1.52" stroke-linecap="round" stroke-linejoin="round"/>
<path d="M227.115 201.027V196.207" stroke="#263238" stroke-width="1.52" stroke-linecap="round" stroke-linejoin="round"/>
<path d="M238.183 201.027V196.207" stroke="#263238" stroke-width="1.52" stroke-linecap="round" stroke-linejoin="round"/>
<path d="M249.264 201.027V196.207" stroke="#263238" stroke-width="1.52" stroke-linecap="round" stroke-linejoin="round"/>
<path d="M260.332 201.027V196.207" stroke="#263238" stroke-width="1.52" stroke-linecap="round" stroke-linejoin="round"/>
<path d="M271.4 201.027V196.207" stroke="#263238" stroke-width="1.52" stroke-linecap="round" stroke-linejoin="round"/>
<path d="M282.469 201.027V196.207" stroke="#263238" stroke-width="1.52" stroke-linecap="round" stroke-linejoin="round"/>
<path d="M293.124 201.027V196.207" stroke="#263238" stroke-width="1.52" stroke-linecap="round" stroke-linejoin="round"/>
<path d="M303.78 201.027V196.207" stroke="#263238" stroke-width="1.52" stroke-linecap="round" stroke-linejoin="round"/>
<path d="M314.423 201.027V196.207" stroke="#263238" stroke-width="1.52" stroke-linecap="round" stroke-linejoin="round"/>
<path d="M342.601 148.659V195.253C342.601 198.449 338.943 201.027 334.436 201.027H113.28C111.933 201.07 110.594 200.835 109.366 200.343C108.138 199.85 107.055 199.113 106.2 198.187C105.462 197.347 105.048 196.318 105.02 195.253V148.659C105.02 145.515 108.678 142.884 113.186 142.884H334.436C338.943 142.884 342.601 145.462 342.601 148.659Z" stroke="#B9FF66" stroke-width="1.52" stroke-linecap="round" stroke-linejoin="round"/>
<path d="M275.294 58.4156L204.694 142.884L177.696 175.184L148.196 158.5L112.1 201.027H111.581C110.449 201.028 109.336 200.767 108.353 200.269C107.37 199.77 106.551 199.053 105.976 198.187L146.532 150.388L176.032 167.041L196.222 142.937L269.842 54.9048L275.294 58.4156Z" fill="#219653"/>
<path d="M257.382 59.4845L283.331 45.5146L276.156 69.6815L271.578 58.4994L257.382 59.4845Z" fill="#219653"/>
<path d="M502.951 325.425H87.957L41.4414 362.157" stroke="#27AE60" stroke-width="2.10526" stroke-linecap="round" stroke-linejoin="round"/>
<path d="M88.2173 299.707V228.286" stroke="#27AE60" stroke-width="2.10526" stroke-linecap="round" stroke-linejoin="round"/>
<path d="M88.2173 321.275V307.462" stroke="#27AE60" stroke-width="2.10526" stroke-linecap="round" stroke-linejoin="round"/>
<path d="M477.97 151.667C477.97 151.667 477.97 147.349 471.161 141.312C464.352 135.276 459.986 131.817 459.986 131.817C459.986 131.817 456.576 141.742 462.901 147.789C467.547 152.049 472.587 155.954 477.97 159.464V151.667Z" fill="#B9FF66"/>
<path d="M468.093 178.632C468.093 178.632 468.093 174.314 461.284 168.267C454.476 162.22 450.11 158.772 450.11 158.772C450.11 158.772 446.711 168.697 453.024 174.743C457.676 179.001 462.716 182.909 468.093 186.429V178.632Z" fill="#B9FF66"/>
<path d="M477.533 159.023C477.533 159.023 478.052 154.727 485.533 149.35C493.014 143.974 497.782 140.966 497.782 140.966C497.782 140.966 499.976 151.184 492.979 156.571C487.852 160.362 482.377 163.766 476.612 166.747L477.533 159.023Z" fill="#B9FF66"/>
<path d="M465.603 190.862C465.603 190.862 466.629 186.67 474.701 181.996C482.772 177.322 487.858 174.785 487.858 174.785C487.858 174.785 488.837 185.129 481.273 189.866C475.729 193.157 469.883 196.028 463.797 198.449L465.603 190.862Z" fill="#B9FF66"/>
<path d="M467.856 225.561C467.856 225.561 467.856 221.243 474.653 215.207C481.45 209.17 485.828 205.712 485.828 205.712C485.828 205.712 489.238 215.647 482.913 221.683C478.275 225.949 473.238 229.858 467.856 233.369V225.561Z" fill="#B9FF66"/>
<path d="M467.739 234.039C467.739 234.039 468.423 229.764 462.653 222.931C456.883 216.098 453.119 212.115 453.119 212.115C453.119 212.115 448.186 221.547 453.461 228.296C457.382 233.09 461.747 237.584 466.512 241.732L467.739 234.039Z" fill="#B9FF66"/>
<path d="M461.025 259.139C461.025 259.139 461.025 254.832 467.834 248.785C474.643 242.738 479.009 239.353 479.009 239.353C479.009 239.353 482.419 249.277 476.094 255.314C471.449 259.577 466.408 263.486 461.025 266.999V259.139Z" fill="#B9FF66"/>
<path d="M465.568 281.912C465.568 281.912 464.388 277.72 469.214 270.384C474.04 263.048 477.321 258.699 477.321 258.699C477.321 258.699 483.433 267.544 479.055 274.806C475.771 279.968 472.005 284.876 467.798 289.478L465.568 281.912Z" fill="#B9FF66"/>
<path d="M478.583 150.598C478.24 155.089 477.617 159.56 476.719 163.991C474.028 176.337 467.279 184.301 464.612 195.431C461.945 206.561 469.651 220.95 467.586 235.255C465.521 249.56 459.231 257.536 461.001 267.093C462.771 276.651 472.211 302.516 472.211 302.516" stroke="#263238" stroke-width="1.78978" stroke-linecap="round" stroke-linejoin="round"/>
<path d="M477.475 161.895L484.802 156.885" stroke="#263238" stroke-width="1.78978" stroke-linecap="round" stroke-linejoin="round"/>
<path d="M477.805 156.142L474.749 151.289" stroke="#263238" stroke-width="1.78978" stroke-linecap="round" stroke-linejoin="round"/>
<path d="M465.025 194.928C465.025 194.928 471.161 190.83 477.474 186.743" stroke="#263238" stroke-width="1.78978" stroke-linecap="round" stroke-linejoin="round"/>
<path d="M468.093 186.376C468.093 186.376 462.972 177.468 457.178 171.558" stroke="#263238" stroke-width="1.78978" stroke-linecap="round" stroke-linejoin="round"/>
<path d="M468.093 231.702C471.609 225.968 476.041 220.715 481.25 216.108" stroke="#263238" stroke-width="1.78978" stroke-linecap="round" stroke-linejoin="round"/>
<path d="M466.901 237.76C465.019 233.861 462.777 230.106 460.199 226.536C456.659 221.841 456.092 221.233 456.092 221.233" stroke="#263238" stroke-width="1.78978" stroke-linecap="round" stroke-linejoin="round"/>
<path d="M461.025 267.083C462.584 263.651 464.434 260.33 466.56 257.148C468.682 254.185 471.074 251.381 473.71 248.764" stroke="#263238" stroke-width="1.78978" stroke-linecap="round" stroke-linejoin="round"/>
<path d="M467.786 289.426C467.43 286.151 468.065 282.852 469.627 279.868C472.187 275.477 475.078 269.713 476.282 267.449" stroke="#263238" stroke-width="1.78978" stroke-linecap="round" stroke-linejoin="round"/>
<path d="M433.413 209.327C433.413 209.327 432.882 206.634 436.41 202.18C439.938 197.726 442.31 195.137 442.31 195.137C442.31 195.137 445.649 201.027 442.428 205.429C440.035 208.544 437.351 211.475 434.404 214.19L433.413 209.327Z" fill="#B9FF66"/>
<path d="M442.9 225.32C442.9 225.32 442.369 222.606 445.897 218.162C449.425 213.719 451.797 211.13 451.797 211.13C451.797 211.13 455.137 217.03 451.915 221.421C449.525 224.539 446.841 227.47 443.891 230.183L442.9 225.32Z" fill="#B9FF66"/>
<path d="M434.581 213.897C434.581 213.897 433.755 211.256 428.386 208.657C423.017 206.058 419.678 204.57 419.678 204.57C419.678 204.57 419.548 211.141 424.61 213.897C428.287 215.78 432.135 217.386 436.115 218.697L434.581 213.897Z" fill="#B9FF66"/>
<path d="M445.956 232.708C445.956 232.708 444.776 230.162 439.16 228.034C433.543 225.907 430.015 224.785 430.015 224.785C430.015 224.785 430.664 231.356 436.009 233.599C439.89 235.128 443.908 236.365 448.021 237.299L445.956 232.708Z" fill="#B9FF66"/>
<path d="M448.788 254.664C448.788 254.664 448.257 251.96 443.254 248.827C438.251 245.693 435.077 243.943 435.077 243.943C435.077 243.943 434.156 250.514 438.864 253.679C442.296 255.893 445.931 257.845 449.732 259.516L448.788 254.664Z" fill="#B9FF66"/>
<path d="M449.885 259.998C449.885 259.998 448.93 257.389 451.714 252.547C454.499 247.705 456.434 244.844 456.434 244.844C456.434 244.844 460.682 250.252 458.204 255.02C456.315 258.404 454.112 261.643 451.62 264.704L449.885 259.998Z" fill="#B9FF66"/>
<path d="M458.429 281.828C458.429 281.828 458.783 279.103 463.573 275.718C468.364 272.333 471.42 270.478 471.42 270.478C471.42 270.478 472.766 276.976 468.27 280.392C464.986 282.777 461.485 284.915 457.803 286.785L458.429 281.828Z" fill="#B9FF66"/>
<path d="M457.166 275.1C457.166 275.1 456.635 272.386 451.632 269.252C446.629 266.119 443.467 264.379 443.467 264.379C443.467 264.379 442.546 270.95 447.243 274.115C450.679 276.327 454.318 278.28 458.122 279.952L457.166 275.1Z" fill="#B9FF66"/>
<path d="M457.095 289.814C457.095 289.814 457.367 287.068 453.414 282.918C449.461 278.768 446.9 276.347 446.9 276.347C446.9 276.347 444.139 282.478 447.785 286.618C450.478 289.537 453.438 292.253 456.635 294.74L457.095 289.814Z" fill="#B9FF66"/>
<path d="M432.882 208.699C433.65 211.485 434.592 214.232 435.703 216.926C438.889 224.398 444.081 228.747 447.125 235.475C450.169 242.203 447.125 251.96 450.134 260.732C453.143 269.504 458.099 273.874 458.134 280.068C458.17 286.261 455.479 303.375 455.479 303.375" stroke="#263238" stroke-width="1.78978" stroke-linecap="round" stroke-linejoin="round"/>
<path d="M434.97 215.689L429.767 213.268" stroke="#263238" stroke-width="1.78978" stroke-linecap="round" stroke-linejoin="round"/>
<path d="M434.05 212.115L435.383 208.782" stroke="#263238" stroke-width="1.78978" stroke-linecap="round" stroke-linejoin="round"/>
<path d="M446.818 235.192C446.818 235.192 442.464 233.222 438.015 231.262" stroke="#263238" stroke-width="1.78978" stroke-linecap="round" stroke-linejoin="round"/>
<path d="M443.844 230.183C445.124 226.595 446.812 223.133 448.883 219.849" stroke="#263238" stroke-width="1.78978" stroke-linecap="round" stroke-linejoin="round"/>
<path d="M449.39 258.562C446.486 255.307 443.068 252.441 439.242 250.053" stroke="#263238" stroke-width="1.78978" stroke-linecap="round" stroke-linejoin="round"/>
<path d="M450.877 262.251C451.566 259.633 452.502 257.07 453.674 254.59C455.314 251.289 455.597 250.86 455.597 250.86" stroke="#263238" stroke-width="1.78978" stroke-linecap="round" stroke-linejoin="round"/>
<path d="M457.91 284.742C459.598 282.879 461.47 281.153 463.503 279.585C464.797 278.734 466.013 277.791 467.137 276.766" stroke="#263238" stroke-width="1.78978" stroke-linecap="round" stroke-linejoin="round"/>
<path d="M458.134 280.067C456.724 278.068 455.146 276.166 453.414 274.377C451.719 272.733 449.876 271.216 447.903 269.839" stroke="#263238" stroke-width="1.78978" stroke-linecap="round" stroke-linejoin="round"/>
<path d="M456.659 294.739C456.471 292.642 455.657 290.627 454.299 288.902C452.151 286.387 449.579 283.054 448.611 281.744" stroke="#263238" stroke-width="1.78978" stroke-linecap="round" stroke-linejoin="round"/>
<path d="M479.291 332.887H448.305C447.689 332.887 447.097 332.673 446.656 332.291C446.216 331.91 445.96 331.39 445.945 330.843L441.496 300.388H486.006L481.557 330.843C481.543 331.376 481.3 331.883 480.879 332.263C480.459 332.642 479.891 332.866 479.291 332.887Z" fill="#263238"/>
<path d="M485.651 305.534H441.543C440.624 305.537 439.743 305.216 439.09 304.643C438.438 304.069 438.068 303.289 438.062 302.474C438.077 301.66 438.447 300.883 439.094 300.306C439.741 299.729 440.614 299.398 441.531 299.382H485.651C486.108 299.381 486.56 299.459 486.982 299.614C487.404 299.768 487.788 299.995 488.112 300.281C488.435 300.567 488.692 300.907 488.867 301.282C489.042 301.656 489.132 302.058 489.132 302.463C489.13 302.868 489.039 303.268 488.863 303.642C488.688 304.015 488.431 304.354 488.107 304.639C487.784 304.924 487.401 305.15 486.979 305.303C486.558 305.457 486.107 305.535 485.651 305.534Z" fill="#263238"/>
<path d="M386.214 183.725C386.212 192.326 382.929 200.672 376.901 207.404C370.873 214.136 362.455 218.855 353.02 220.793H352.89C351.769 221.013 350.648 221.212 349.492 221.358C347.463 221.615 345.417 221.744 343.368 221.746C332.168 221.711 321.429 217.782 313.451 210.8C305.473 203.819 300.889 194.341 300.683 184.396C300.476 174.451 304.662 164.829 312.345 157.591C320.027 150.353 330.596 146.075 341.787 145.672C342.176 145.672 342.589 145.672 342.967 145.672C343.092 145.661 343.219 145.661 343.344 145.672C343.489 145.661 343.635 145.661 343.781 145.672C349.561 145.705 355.273 146.793 360.56 148.868C368.188 151.836 374.676 156.713 379.232 162.903C383.788 169.094 386.214 176.329 386.214 183.725Z" fill="#B9FF66"/>
<path opacity="0.4" d="M360.584 148.879C311.107 146.594 310.871 195.379 310.871 195.379C310.871 195.379 303.319 179.459 315.65 161.843C322.541 151.981 334.53 147.632 343.805 145.703C349.584 145.73 355.295 146.811 360.584 148.879Z" fill="white"/>
<path d="M386.214 183.725C386.213 192.347 382.916 200.713 376.862 207.453C370.808 214.193 362.356 218.908 352.89 220.824C349.767 221.462 346.573 221.782 343.368 221.778C332.004 221.964 321.023 218.133 312.84 211.129C304.656 204.124 299.941 194.519 299.731 184.427C299.522 174.335 303.835 164.582 311.722 157.314C319.609 150.046 330.423 145.858 341.787 145.672C342.306 145.672 342.837 145.672 343.368 145.672C354.73 145.675 365.626 149.685 373.661 156.82C381.695 163.956 386.21 173.633 386.214 183.725V183.725Z" stroke="#263238" stroke-width="1.52" stroke-linecap="round" stroke-linejoin="round"/>
<path d="M386.214 183.725C386.213 192.347 382.916 200.713 376.862 207.453C370.808 214.193 362.356 218.908 352.891 220.824C352.372 220.824 351.841 220.824 351.31 220.824C340.792 220.799 330.653 217.341 322.82 211.107C314.988 204.873 310.01 196.299 308.834 187.017C307.658 177.735 310.366 168.393 316.442 160.769C322.518 153.145 331.539 147.772 341.787 145.672C342.306 145.672 342.837 145.672 343.368 145.672C354.731 145.675 365.627 149.685 373.661 156.82C381.696 163.956 386.211 173.633 386.214 183.725V183.725Z" stroke="#263238" stroke-width="1.52" stroke-linecap="round" stroke-linejoin="round"/>
<path d="M358.13 207.504L359.239 211.528L351.829 213.132L350.719 209.118C344.088 209.118 338.766 205.293 337.067 199.151L336.559 197.328L344.737 194.697L345.256 196.594C346.283 200.325 349.056 202.117 352.513 201.363C353.272 201.258 353.996 201.008 354.636 200.63C355.275 200.253 355.815 199.756 356.218 199.176C356.621 198.595 356.877 197.943 356.968 197.266C357.06 196.589 356.985 195.902 356.749 195.253C355.758 191.669 351.132 189.426 345.775 187.11C339.439 184.385 332.901 180.927 331.108 174.419C329.361 168.068 331.556 162.775 337.208 160.155L336.099 156.131L343.498 154.528L344.607 158.541C351.038 158.458 355.829 162.22 357.587 168.718L357.953 170.038L349.787 172.668L349.374 171.212C348.289 167.261 345.999 165.594 342.955 166.255C339.911 166.915 338.648 168.98 339.533 172.186C340.524 175.771 345.209 177.929 350.507 180.34C356.773 183.159 363.381 186.523 365.174 193.021C366.98 199.277 364.101 204.853 358.13 207.504Z" stroke="#263238" stroke-width="1.52" stroke-miterlimit="10"/>
<path opacity="0.3" d="M358.13 207.504L359.239 211.528L351.829 213.132L350.719 209.118C344.088 209.118 338.766 205.293 337.067 199.151L336.559 197.328L344.737 194.697L345.256 196.594C346.283 200.325 349.056 202.117 352.513 201.363C353.272 201.258 353.996 201.008 354.636 200.63C355.275 200.253 355.815 199.756 356.218 199.176C356.621 198.595 356.877 197.943 356.968 197.266C357.06 196.589 356.985 195.902 356.749 195.253C355.758 191.669 351.132 189.426 345.775 187.11C339.439 184.385 332.901 180.927 331.108 174.419C329.361 168.068 331.556 162.775 337.208 160.155L336.099 156.131L343.498 154.528L344.607 158.541C351.038 158.458 355.829 162.22 357.587 168.718L357.953 170.038L349.787 172.668L349.374 171.212C348.289 167.261 345.999 165.594 342.955 166.255C339.911 166.915 338.648 168.98 339.533 172.186C340.524 175.771 345.209 177.929 350.507 180.34C356.773 183.159 363.381 186.523 365.174 193.021C366.98 199.277 364.101 204.853 358.13 207.504Z" fill="black"/>
<path d="M321.467 216.443L330.518 216.076" stroke="#263238" stroke-width="1.52" stroke-linecap="round" stroke-linejoin="round"/>
<path d="M317.113 213.771L325.007 213.174" stroke="#263238" stroke-width="1.52" stroke-linecap="round" stroke-linejoin="round"/>
<path d="M313.573 210.952L321.467 210.354" stroke="#263238" stroke-width="1.52" stroke-linecap="round" stroke-linejoin="round"/>
<path d="M312.487 157.336H319.249" stroke="#263238" stroke-width="1.52" stroke-linecap="round" stroke-linejoin="round"/>
<path d="M315.827 154.569L322.564 154.297" stroke="#263238" stroke-width="1.52" stroke-linecap="round" stroke-linejoin="round"/>
<path d="M320.051 151.792L327.154 151.195" stroke="#263238" stroke-width="1.52" stroke-linecap="round" stroke-linejoin="round"/>
<path opacity="0.3" d="M353.02 220.793H352.89C349.767 221.431 346.572 221.751 343.368 221.746C332.168 221.711 321.429 217.782 313.451 210.8C305.473 203.819 300.889 194.341 300.683 184.396C300.476 174.451 304.662 164.829 312.345 157.591C320.027 150.353 330.596 146.075 341.787 145.672C342.176 145.672 342.589 145.672 342.967 145.672C332.524 148.596 315.001 156.068 310.316 171.652C303.696 193.796 318.6 218.938 353.02 220.793Z" fill="black"/>
<path opacity="0.1" d="M386.214 183.725C386.212 192.326 382.93 200.672 376.902 207.404C370.874 214.136 362.456 218.855 353.02 220.793H352.891C351.77 221.013 350.649 221.212 349.492 221.359L360.584 148.847C368.211 151.82 374.697 156.701 379.248 162.896C383.8 169.09 386.221 176.328 386.214 183.725Z" fill="black"/>
<path d="M410.522 123.821C407.129 128.077 402.212 131.186 396.573 132.64C390.935 134.094 384.907 133.808 379.476 131.828L379.322 131.765C378.517 131.45 377.729 131.101 376.962 130.717C376.096 130.303 375.261 129.841 374.461 129.334C369.234 125.788 365.716 120.613 364.62 114.853C363.524 109.093 364.93 103.179 368.554 98.3045C372.179 93.4301 377.751 89.9592 384.146 88.5932C390.541 87.2272 397.281 88.0678 403.005 90.9453L403.583 91.2702C403.854 91.4064 404.114 91.5741 404.386 91.7418C404.657 91.9095 405.176 92.2553 405.566 92.5278C410.724 96.2023 414.109 101.486 415.03 107.302C415.951 113.117 414.338 119.025 410.522 123.821Z" fill="#B9FF66"/>
<path opacity="0.4" d="M371.416 124.136C371.416 124.136 367.18 113.058 372.809 104.905C379.889 94.6868 390.733 90.0232 405.495 92.5384C405.495 92.5384 397.494 87.7385 384.101 91.1445C370.708 94.5505 363.522 110.92 371.416 124.136Z" fill="white"/>
<path d="M410.522 123.832C407.126 128.084 402.207 131.189 396.569 132.639C390.931 134.089 384.905 133.8 379.476 131.817C377.684 131.167 375.982 130.337 374.402 129.344C369.142 125.761 365.625 120.526 364.572 114.713C363.519 108.9 365.01 102.949 368.739 98.0816C372.468 93.2138 378.153 89.7973 384.627 88.5328C391.102 87.2682 397.875 88.2514 403.56 91.2807C403.819 91.417 404.091 91.5742 404.35 91.7419C409.951 95.2766 413.746 100.639 414.903 106.654C416.059 112.669 414.484 118.846 410.522 123.832Z" stroke="#263238" stroke-width="1.52" stroke-linecap="round" stroke-linejoin="round"/>
<path d="M410.521 123.832C407.125 128.084 402.207 131.189 396.568 132.639C390.93 134.089 384.905 133.8 379.475 131.817L378.685 131.356C373.558 128.056 369.967 123.205 368.586 117.718C367.205 112.23 368.129 106.483 371.186 101.558C374.243 96.6334 379.22 92.8707 385.183 90.9779C391.145 89.0851 397.68 89.1928 403.559 91.2807C403.819 91.4169 404.09 91.5741 404.35 91.7418C409.95 95.2765 413.745 100.639 414.902 106.654C416.059 112.669 414.483 118.846 410.521 123.832Z" stroke="#263238" stroke-width="1.52" stroke-linecap="round" stroke-linejoin="round"/>
<path d="M387.288 126.892L386.261 129.218L381.966 127.72L382.993 125.383C381.399 124.386 380.245 122.929 379.728 121.259C379.212 119.59 379.364 117.814 380.161 116.234L380.633 115.186L385.707 116.412L385.223 117.523C384.267 119.682 384.916 121.421 386.922 122.123C387.338 122.307 387.795 122.409 388.26 122.421C388.725 122.433 389.187 122.355 389.614 122.192C390.042 122.03 390.425 121.787 390.736 121.48C391.047 121.173 391.28 120.81 391.418 120.415C392.338 118.319 390.934 115.794 389.199 112.995C387.146 109.684 385.282 105.953 386.946 102.18C388.609 98.4072 391.748 96.5627 395.56 97.0238L396.598 94.6973L400.881 96.1959L399.855 98.512C403.064 100.461 403.949 103.752 402.286 107.577L401.943 108.332L396.869 107.106L397.247 106.257C398.262 103.972 397.79 102.432 396.067 101.813C394.344 101.195 392.869 101.813 392.043 103.689C391.123 105.785 392.598 108.279 394.262 111.109C396.256 114.452 398.191 118.162 396.527 121.924C395.896 123.588 394.622 125 392.931 125.91C391.24 126.819 389.24 127.167 387.288 126.892V126.892Z" stroke="#263238" stroke-width="1.52" stroke-miterlimit="10"/>
<path opacity="0.3" d="M387.288 126.892L386.261 129.218L381.966 127.72L382.993 125.383C381.399 124.386 380.245 122.929 379.728 121.259C379.212 119.59 379.364 117.814 380.161 116.234L380.633 115.186L385.707 116.412L385.223 117.523C384.267 119.682 384.916 121.421 386.922 122.123C387.338 122.307 387.795 122.409 388.26 122.421C388.725 122.433 389.187 122.355 389.614 122.192C390.042 122.03 390.425 121.787 390.736 121.48C391.047 121.173 391.28 120.81 391.418 120.415C392.338 118.319 390.934 115.794 389.199 112.995C387.146 109.684 385.282 105.953 386.946 102.18C388.609 98.4072 391.748 96.5627 395.56 97.0238L396.598 94.6973L400.881 96.1959L399.855 98.512C403.064 100.461 403.949 103.752 402.286 107.577L401.943 108.332L396.869 107.106L397.247 106.257C398.262 103.972 397.79 102.432 396.067 101.813C394.344 101.195 392.869 101.813 392.043 103.689C391.123 105.785 392.598 108.279 394.262 111.109C396.256 114.452 398.191 118.162 396.527 121.924C395.896 123.588 394.622 125 392.931 125.91C391.24 126.819 389.24 127.167 387.288 126.892Z" fill="black"/>
<path opacity="0.3" d="M402.946 90.9559C395.866 89.8345 386.898 89.2162 382.06 92.0039C373.174 97.0657 367.64 103.448 367.723 113.792C367.805 124.136 378.685 131.388 378.685 131.388L379.322 131.796C377.587 131.153 375.937 130.341 374.402 129.376C369.174 125.83 365.657 120.655 364.561 114.895C363.465 109.135 364.871 103.221 368.495 98.3465C372.12 93.4721 377.692 90.0012 384.087 88.6352C390.482 87.2692 397.222 88.1098 402.946 90.9873V90.9559Z" fill="black"/>
<path opacity="0.1" d="M410.522 123.821C407.129 128.077 402.212 131.186 396.573 132.64C390.935 134.095 384.908 133.808 379.476 131.828L379.322 131.765C378.517 131.45 377.729 131.101 376.962 130.717L405.495 92.5383C410.661 96.2035 414.057 101.481 414.991 107.295C415.926 113.108 414.327 119.019 410.522 123.821Z" fill="black"/>
<path d="M397.165 418.949C386.181 430.683 373.087 440.722 358.413 448.659C353.841 451.089 349.113 453.28 344.254 455.22C310.73 468.603 272.521 469.473 236.791 461.78C161.66 445.61 121.8 386.712 116.738 321.327C115.381 303.658 112.336 284.574 120.396 267.764C128.455 250.954 144.751 240.516 163.182 233.264C176.564 227.972 191.019 224.419 204.152 221.516C227.92 216.301 252.99 218.599 275.058 228.013C290.505 234.522 301.502 245.829 314.494 255.356C315.871 256.362 317.255 257.364 318.648 258.364C331.771 267.745 345.567 276.36 359.948 284.155C381.789 295.987 404.15 307.148 418.11 327.018C440.376 358.689 421.591 393.168 397.165 418.949Z" fill="#B9FF66"/>
<path opacity="0.4" d="M397.165 418.949C386.181 430.683 373.087 440.722 358.413 448.659C353.841 451.089 349.113 453.28 344.254 455.22C310.73 468.603 272.521 469.473 236.791 461.78C161.66 445.61 121.8 386.712 116.738 321.327C115.381 303.658 112.336 284.574 120.396 267.764C128.455 250.954 144.751 240.516 163.182 233.264C176.564 227.972 191.019 224.419 204.152 221.516C227.92 216.301 252.99 218.599 275.058 228.013C290.505 234.522 301.502 245.829 314.494 255.356C315.871 256.362 317.255 257.364 318.648 258.364C331.771 267.745 345.567 276.36 359.948 284.155C381.789 295.987 404.15 307.148 418.11 327.018C440.376 358.689 421.591 393.168 397.165 418.949Z" fill="white"/>
<path d="M318.601 258.363C317.208 257.371 315.824 256.365 314.447 255.345C301.467 245.798 290.446 234.521 275.011 228.013C252.942 218.603 227.873 216.306 204.105 221.516C172.871 228.401 134.131 239.007 120.325 267.774C112.266 284.542 115.31 303.658 116.679 321.327C121.8 386.712 161.661 445.609 236.791 461.78C277.666 470.583 321.751 468.173 358.414 448.659C373.088 440.721 386.181 430.682 397.165 418.948C421.591 393.168 440.377 358.688 418.134 327.018C404.186 307.106 381.825 295.987 359.971 284.155C345.567 276.363 331.747 267.747 318.601 258.363V258.363Z" stroke="#263238" stroke-width="1.52" stroke-miterlimit="10"/>
<path d="M204.79 374.953C198.535 376.635 192.464 378.816 186.653 381.472" stroke="#263238" stroke-width="1.52" stroke-linecap="round" stroke-linejoin="round"/>
<path d="M243.08 368.477C233.943 369.179 224.874 370.457 215.94 372.302" stroke="#263238" stroke-width="1.52" stroke-linecap="round" stroke-linejoin="round"/>
<path d="M235.116 366.8C235.116 366.8 199.857 348.586 157.307 363.184" stroke="#263238" stroke-width="1.52" stroke-linecap="round" stroke-linejoin="round"/>
<path opacity="0.1" d="M397.166 418.949C386.182 430.683 373.088 440.722 358.414 448.659C353.842 451.089 349.114 453.279 344.254 455.22C340.418 454.177 336.648 452.949 332.962 451.541C310.943 443.157 292.464 428.978 274.41 414.998C263.519 406.614 252.45 398.02 239.411 392.497C221.779 385.092 201.719 383.625 182.96 388.368C192.662 378.642 205.853 372.196 220.295 370.122C210.973 362.587 198.005 359.422 185.403 359.223C172.8 359.024 165.862 360.397 153.543 362.849C157.661 356.121 168.588 350.032 177.214 350.21C169.014 350.114 160.827 349.599 152.693 348.67C141.566 347.077 136.586 335.444 134.922 325.551C130.32 298.303 134.981 269.284 151.726 246.123C155.041 241.503 158.876 237.195 163.172 233.264C176.553 227.972 191.008 224.419 204.141 221.516C227.909 216.301 252.979 218.599 275.047 228.013C290.494 234.522 301.491 245.829 314.483 255.356C315.86 256.362 317.244 257.364 318.637 258.364C331.76 267.745 345.556 276.36 359.937 284.155C381.778 295.987 404.139 307.148 418.099 327.018C440.377 358.689 421.592 393.168 397.166 418.949Z" fill="black"/>
<path d="M409.461 418.152C416.077 423.037 422.999 427.586 430.193 431.776C444.224 432.614 437.934 447.674 437.934 447.674L425.922 454.539C425.922 454.539 405.354 440.024 394.121 435.318C382.887 430.613 409.461 418.152 409.461 418.152Z" fill="white"/>
<path opacity="0.3" d="M309.763 259.59C309.763 259.59 307.839 242.685 304.771 237.938L258.185 229.512V226.305C258.185 226.305 259.259 220.73 248.875 217.24C238.491 213.75 216.849 218.288 211.268 222.04C205.687 225.792 207.728 232.247 207.728 232.247C207.728 232.247 188.966 240.663 180.541 243.87C173.644 246.696 166.92 249.844 160.398 253.302C160.398 253.302 156.575 292.162 157.33 301.185C158.085 310.208 156.717 318.697 157.59 323.696C158.463 328.695 159.147 331.535 165.047 335.79C170.947 340.045 176.316 346.27 191.786 340.097L189.627 338.577L291.461 308.112L309.763 259.59Z" fill="black"/>
<path d="M309.763 259.59C309.763 259.59 307.839 242.685 304.771 237.938L258.185 229.512V226.305C258.185 226.305 259.259 220.73 248.875 217.24C238.491 213.75 216.849 218.288 211.268 222.04C205.687 225.792 207.728 232.247 207.728 232.247C207.728 232.247 188.966 240.663 180.541 243.87C173.644 246.696 166.92 249.844 160.398 253.302C160.398 253.302 156.575 292.162 157.33 301.185C158.085 310.208 156.717 318.697 157.59 323.696C158.463 328.695 159.147 331.535 165.047 335.79C170.947 340.045 176.316 346.27 191.786 340.097L189.627 338.577L291.461 308.112L309.763 259.59Z" fill="#B9FF66"/>
<path opacity="0.05" d="M309.763 259.59C309.763 259.59 307.839 242.685 304.771 237.938L258.185 229.512V226.305C258.185 226.305 259.259 220.73 248.875 217.24C238.491 213.75 216.849 218.288 211.268 222.04C205.687 225.792 207.728 232.247 207.728 232.247C207.728 232.247 188.966 240.663 180.541 243.87C173.644 246.696 166.92 249.844 160.398 253.302C160.398 253.302 156.575 292.162 157.33 301.185C158.085 310.208 156.717 318.697 157.59 323.696C158.463 328.695 159.147 331.535 165.047 335.79C170.947 340.045 176.316 346.27 191.786 340.097L189.627 338.577L291.461 308.112L309.763 259.59Z" fill="black"/>
<path opacity="0.1" d="M305.385 239.992H285.891C284.058 239.995 282.286 240.574 280.888 241.627C279.49 242.681 278.558 244.14 278.257 245.745L268.652 297.097C268.652 297.097 255.424 298.072 246.055 304.14C236.685 310.208 213.64 266.915 177.225 266.894C177.225 266.894 187.704 288.169 190.028 305.146C190.028 305.146 167.266 302.945 163.49 310.858C159.714 318.77 165.201 333.599 174.83 327.856C184.459 322.113 193.521 312.535 199.952 318.592C206.383 324.649 235.116 327.909 235.116 327.909L279.331 308.112L296.476 300.954L305.385 239.992Z" fill="black"/>
<path opacity="0.4" d="M243.494 214.536C243.494 214.536 254.562 217.261 256.356 220.562C258.149 223.863 257.961 232.216 257.961 232.216C255.275 237.798 251.205 242.771 246.054 246.762L237.794 232.216L238.538 248.711C238.538 248.711 222.867 246.395 216.212 241.952L209.569 237.498C209.569 237.498 206.701 229.114 207.114 226.274C207.527 223.434 219.481 217.67 219.481 217.67L243.494 214.536Z" fill="white"/>
<path d="M427.857 468.896C427.55 468.299 432.4 460.691 428.6 452.946C424.801 445.201 418.747 448.188 418.747 448.188C418.747 448.188 401.507 438.441 394.262 435.36C389.042 433.032 384.015 430.377 379.217 427.417L371.559 436.576L378.639 456.027L427.857 468.896Z" fill="#B9FF66"/>
<path d="M418.123 447.716L440.259 459.726C440.259 459.726 455.824 450.86 463.246 444.74C470.668 438.62 487.341 425.582 487.341 425.582L497.961 412.891C497.961 412.891 490.598 404.801 478.326 411.298C462.467 419.682 443.127 431.86 430.229 431.745C430.229 431.745 432.766 445.819 418.205 447.716" fill="#B9FF66"/>
<path d="M239.741 163.729C239.741 163.729 249.783 177.227 251.612 181.597C253.441 185.968 254.916 192.434 254.55 195.546C254.185 198.659 250.503 215.333 248.65 215.815L246.869 217.607L248.049 224.67C248.049 224.67 240.19 236.733 217.085 227.888C217.085 227.888 216.189 213.802 213.38 209.38C210.572 204.957 206.371 210.218 202.158 197.443C197.946 184.668 211.362 171.243 211.362 171.243L239.741 163.729Z" fill="white"/>
<path opacity="0.5" d="M488.32 408.951C488.32 408.951 476.933 410.711 473.24 416.695C469.547 422.679 462.455 433.799 460.036 439.175C457.617 444.551 437.616 457.536 437.616 457.536L440.271 459.726C440.271 459.726 456.555 450.787 466.384 442.288C476.214 433.788 497.89 412.409 497.89 412.409C497.89 412.409 496.333 411.036 488.32 408.951Z" fill="white"/>
<path opacity="0.5" d="M374.379 433.212L371.559 436.576L380.22 452.526L427.857 467.733L430.063 461.539C430.063 461.539 430.795 455.251 414.074 450.472C397.354 445.693 387.159 442.539 382.403 439.259C377.648 435.978 374.379 433.212 374.379 433.212Z" fill="white"/>
<path d="M217.121 314.746C217.121 314.746 202.536 312.797 195.728 323.392C188.919 333.987 189.615 338.577 189.615 338.577C189.615 338.577 199.256 346.354 212.507 345.913C225.759 345.473 245.052 331.996 251.341 327.605C257.63 323.214 273.49 310.648 284.31 313.247L285.49 304.161C285.49 304.161 284.428 300.084 275.177 301.185C265.926 302.285 262.291 306.97 259.306 306.97C256.321 306.97 253.5 304.423 247.506 313.52C247.494 313.52 226.455 316.831 217.121 314.746Z" fill="white"/>
<path d="M236.072 183.138C236.382 184.836 236.824 186.513 237.393 188.158C237.607 188.961 238.009 189.714 238.573 190.369C239.683 191.417 241.476 191.69 243.116 191.91C243.387 191.927 243.644 192.023 243.848 192.182C243.98 192.37 244.042 192.59 244.025 192.811C244.015 194.462 243.457 196.073 242.42 197.443" stroke="#263238" stroke-width="1.52" stroke-linecap="round" stroke-linejoin="round"/>
<path opacity="0.1" d="M384.161 422.344L374.379 433.17C374.379 433.17 385.117 441.983 396.233 445.253C407.348 448.523 426.806 454.685 430.063 459.433L428.812 453.784C428.812 453.784 398.38 437.205 391.395 433.243C389.329 432.04 387.603 430.432 386.349 428.542C385.094 426.652 384.346 424.531 384.161 422.344Z" fill="black"/>
<path opacity="0.1" d="M418.123 447.716L437.604 457.536C437.604 457.536 447.221 451.688 451.941 447.381C456.661 443.074 462.479 438.295 466.101 428.643C471.046 415.302 485.206 408.951 485.206 408.951C485.206 408.951 465.511 417.188 455.257 423.623C445.003 430.057 435.008 432.782 429.203 432.342C429.144 432.373 433.805 445.473 418.123 447.716Z" fill="black"/>
<path d="M229.204 199.822C229.204 199.822 236.862 205.157 244.815 203.155C244.815 203.155 237.311 216.36 229.204 199.822Z" fill="white" stroke="#263238" stroke-width="1.52" stroke-linecap="round" stroke-linejoin="round"/>
<path d="M228.921 188.294C229.145 189.761 228.638 191.03 227.812 191.134C226.986 191.239 226.124 190.086 225.9 188.651C225.676 187.215 226.171 185.915 227.009 185.81C227.847 185.706 228.744 186.827 228.921 188.294Z" fill="#263238"/>
<path d="M245.594 185.622C245.807 187.099 245.311 188.368 244.485 188.462C243.659 188.556 242.786 187.414 242.573 185.989C242.361 184.563 242.845 183.243 243.683 183.148C244.52 183.054 245.37 184.155 245.594 185.622Z" fill="#263238"/>
<path d="M227.741 182.069C227.741 182.069 223.281 180.026 220.106 184.406" stroke="#263238" stroke-width="1.52" stroke-linecap="round" stroke-linejoin="round"/>
<path d="M239.175 179.344C239.175 179.344 243.895 175.75 246.621 179.344" stroke="#263238" stroke-width="1.52" stroke-linecap="round" stroke-linejoin="round"/>
<path d="M212.59 195.557C212.59 195.557 209.722 191.795 206.69 191.91C203.657 192.025 202.453 195.798 203.539 199.445C204.625 203.092 209.144 208.185 212.566 207.703C214.496 207.482 216.257 206.612 217.487 205.272" stroke="#263238" stroke-width="1.52" stroke-linecap="round" stroke-linejoin="round"/>
<path d="M240.084 166.768C243.305 169.147 246.715 171.736 248.344 175.236C249.783 178.212 250.102 181.524 251.424 184.532C252.828 187.749 254.362 191.113 254.48 194.624C254.417 197.872 253.938 201.104 253.052 204.255C252.562 206.988 251.832 209.683 250.869 212.314C249.276 216.077 246.338 218.393 242.397 220.174C239.529 221.474 234.75 223.318 231.647 221.579C229.841 220.531 227.127 217.533 224.874 214.777" stroke="#263238" stroke-width="1.52" stroke-linecap="round" stroke-linejoin="round"/>
<path d="M212.59 207.703C212.59 207.703 217.664 218.749 216.437 226.515" stroke="#263238" stroke-width="1.52" stroke-linecap="round" stroke-linejoin="round"/>
<path d="M211.292 193.702C211.967 193.258 212.502 192.667 212.845 191.986C213.189 191.305 213.328 190.557 213.251 189.814C213.062 188.116 211.74 186.544 212 184.846C212.217 184.033 212.558 183.25 213.015 182.52C213.702 181.11 214.004 179.576 213.898 178.042C213.791 176.509 213.278 175.02 212.401 173.696C212.401 173.696 228.52 174.366 236.072 170.101C243.624 165.836 249.382 154.926 244.816 149.717C240.249 144.509 231.352 151.614 224.756 152.4C218.159 153.186 194.701 156.508 190.96 164.536C187.22 172.564 192.919 175.446 193.096 183.107C193.273 190.767 193.273 205.282 206.171 203.951C206.171 203.951 201.344 198.407 204.696 192.696C206.973 190.296 211.292 193.702 211.292 193.702Z" fill="#263238"/>
<path d="M242.903 158.772C245.092 160.286 246.907 162.184 248.234 164.347C249.562 166.511 250.374 168.894 250.621 171.348C251.34 177.091 262.81 188.252 254.538 194.614C254.538 194.614 252.615 187.854 251.482 184.521C250.349 181.189 248.898 175.089 246.998 172.993C245.098 170.897 235.021 163.561 235.021 163.561L242.903 158.772Z" fill="#263238"/>
<path d="M214.076 226.274C214.076 226.274 222.029 230.927 236.803 231.115L238.537 248.711C238.537 248.711 221.923 247.59 209.569 237.498C209.569 237.498 206.229 229.648 207.114 226.274C207.999 222.899 215.941 219.556 215.941 219.556" stroke="#263238" stroke-width="1.52" stroke-linecap="round" stroke-linejoin="round"/>
<path d="M247.494 218.403L247.966 224.691C244.851 227.572 241.031 229.778 236.803 231.136L246.054 246.783C246.054 246.783 257.087 239.153 258.184 231.136C258.184 231.136 258.279 222.93 256.355 220.583C254.432 218.235 247.423 217.135 247.423 217.135" stroke="#263238" stroke-width="1.52" stroke-linecap="round" stroke-linejoin="round"/>
<path opacity="0.8" d="M202.725 169.776C203.905 167.145 207.138 165.584 210.288 165.165C213.439 164.746 216.672 165.039 219.858 164.966C224.27 164.934 228.59 163.848 232.366 161.822C234.242 160.807 235.875 159.474 237.171 157.899C238.466 156.323 239.4 154.537 239.918 152.641" stroke="white" stroke-width="1.52" stroke-linecap="round" stroke-linejoin="round"/>
<path opacity="0.8" d="M195.113 169.263C197.107 163.886 203.574 160.564 209.934 160.093C213.085 159.851 216.271 160.176 219.374 159.851C222.477 159.527 225.781 158.374 227.422 155.974" stroke="white" stroke-width="1.52" stroke-linecap="round" stroke-linejoin="round"/>
<path d="M191.762 340.097C176.422 347.16 170.971 339.887 162.428 333.872C153.884 327.856 159.489 317.104 157.708 299.864C155.926 282.625 160.363 253.302 160.363 253.302C160.363 253.302 164.186 252.526 174.794 246.762C185.402 240.998 207.728 232.216 207.728 232.216" stroke="#263238" stroke-width="1.52" stroke-linecap="round" stroke-linejoin="round"/>
<path d="M206.961 314.002C206.961 314.002 204.53 307.158 197.663 306.98C190.795 306.802 179.963 309.548 172.246 322.511" stroke="#263238" stroke-width="1.52" stroke-linecap="round" stroke-linejoin="round"/>
<path d="M196.093 306.572C195.666 306.547 195.247 306.458 194.854 306.31C189.192 304.5 183.048 304.252 177.225 305.597" stroke="#263238" stroke-width="1.52" stroke-linecap="round" stroke-linejoin="round"/>
<path d="M173.272 262.66C185.768 274.922 191.857 291.145 197.627 306.865" stroke="#263238" stroke-width="1.52" stroke-linecap="round" stroke-linejoin="round"/>
<path d="M258.185 229.512C258.185 229.512 280.841 234.312 291.909 235.454C302.977 236.596 304.771 237.969 304.771 237.969L306.836 244.823" stroke="#263238" stroke-width="1.52" stroke-linecap="round" stroke-linejoin="round"/>
<path d="M363.759 241.438L286.599 244.069L280.298 314.547H293.514L360.514 301.227L368.939 243.126L363.759 241.438Z" fill="white"/>
<path d="M284.31 316.632L368.703 244.792L360.514 301.227L284.31 316.632Z" fill="#B9FF66"/>
<path opacity="0.7" d="M284.31 316.632L368.703 244.792L360.514 301.227L284.31 316.632Z" fill="white"/>
<path d="M284.31 314.746L291.059 246.762L368.939 243.125L360.514 301.227L284.31 314.746Z" stroke="#263238" stroke-width="1.52" stroke-linecap="round" stroke-linejoin="round"/>
<path d="M336.112 276.064C335.592 280.204 333.103 283.348 330.554 283.096C328.005 282.845 326.377 279.271 326.896 275.131C327.415 270.992 329.917 267.848 332.465 268.099C335.014 268.351 336.643 271.925 336.112 276.064Z" fill="#263238"/>
<path d="M360.514 301.227C360.514 301.227 396.174 300.325 407.325 306.865C418.476 313.404 425.025 346.196 423.479 363.614C421.933 381.032 408.481 421.003 408.481 421.003L382.71 395.096C382.71 395.096 370.013 354.098 376.94 338.043C376.94 338.043 342.72 339.751 329.244 335.999C329.244 335.999 317.173 318.445 296.476 312.639L360.514 301.227Z" fill="#263238"/>
<path d="M413.921 421.684C404.768 414.095 396.548 405.663 389.401 396.532C376.928 379.418 359.688 362.996 341.953 350.179C327.663 339.887 324.43 323.119 306.801 314.704C277.596 300.797 252.344 328.433 242.904 334.029C233.464 339.625 217.121 345.966 217.121 345.966C217.121 345.966 223.091 365.878 240.626 368.236C258.161 370.594 275.896 359.852 284.286 365.039C292.676 370.227 298.883 393.388 326.589 406.959C349.233 418.047 380.09 428.862 396.009 436.157C399.549 437.791 402.192 439.51 404.198 440.485C409.697 443.147 415.573 446.28 421.119 449.382L440.223 459.716C440.223 459.716 459.398 449.644 466.761 440.359C467.741 439.112 469.782 435.79 471.694 432.583C475.859 425.572 481.134 419.284 488.438 415.815C493.488 413.394 497.984 412.671 497.878 412.419C497.394 411.623 488.237 407.462 482.019 409.737C468.85 414.568 442.524 433.128 430.099 431.745C424.319 428.91 418.896 425.538 413.921 421.684V421.684Z" stroke="#263238" stroke-width="1.52" stroke-miterlimit="10"/>
<path d="M413.921 421.684C402.44 425.803 397.814 432.164 396.044 436.167C380.126 428.831 349.269 418.058 326.625 406.97C298.918 393.346 292.759 370.227 284.322 365.05C275.885 359.873 258.137 370.646 240.662 368.246C223.186 365.846 217.121 345.955 217.121 345.955C217.121 345.955 233.475 339.667 242.915 334.071C252.355 328.475 274.126 300.829 306.801 314.746C324.843 322.428 327.663 339.898 341.953 350.221C359.653 362.996 376.928 379.46 389.401 396.574C396.531 405.705 404.752 414.124 413.921 421.684Z" fill="#263238"/>
<path d="M327.64 332.834C327.64 332.834 318.802 316.884 304.63 313.792" stroke="white" stroke-width="1.52" stroke-linecap="round" stroke-linejoin="round"/>
<path d="M281.313 301.08C271.566 299.193 260.863 308.762 256.356 306.97C253.004 305.639 247.494 313.52 247.494 313.52C238.423 314.683 229.25 315.093 220.094 314.746C206.961 314.002 200.742 316.276 196.093 322.511L189.603 337.781C189.603 337.781 206.725 351.405 225.003 343.471C243.281 335.538 267.566 311.602 284.298 311.686" stroke="#263238" stroke-width="1.52" stroke-linecap="round" stroke-linejoin="round"/>
<path d="M417.378 447.307C417.378 447.307 433.379 448.471 429.626 431.493" stroke="#263238" stroke-width="1.52" stroke-miterlimit="10"/>
<path d="M492.781 421.003C491.601 423.099 476.933 434.186 464.295 443.88C464.295 443.734 467.835 437.812 469.299 435.287C472.662 429.711 481.346 414.421 497.878 412.409C500.226 413.667 492.781 421.003 492.781 421.003Z" fill="#263238"/>
<path d="M486.491 409.066C469.771 412.021 465.971 431.074 460.036 439.175C454.1 447.276 437.616 458.29 437.616 458.29" stroke="#263238" stroke-width="1.52" stroke-miterlimit="10"/>
<path d="M428.6 453.428C431.326 457.85 430.04 462.985 428.6 466.203C427.895 467.801 427.018 469.334 425.981 470.783C402.31 467.324 378.639 456.027 378.639 456.027L372.538 439.259L371.559 436.576L380.751 425.582" stroke="#263238" stroke-width="1.52" stroke-miterlimit="10"/>
<path d="M428.6 466.203C427.895 467.801 427.018 469.334 425.981 470.783C402.31 467.324 378.639 456.027 378.639 456.027L372.539 439.259C375.595 442.801 381.259 447.989 389.755 450.116C401.283 453.019 422.559 456.415 428.6 466.203Z" fill="#263238"/>
<path d="M280.298 312.094L286.599 244.069L363.759 241.438L368.939 243.126" stroke="#263238" stroke-width="1.52" stroke-linecap="round" stroke-linejoin="round"/>
<path d="M429.521 439.175C429.521 439.175 440.07 440.852 448.176 434.983C456.283 429.114 469.346 415.836 469.346 415.836" stroke="#263238" stroke-width="1.52" stroke-miterlimit="10"/>
<path d="M440.259 430.728C440.259 430.728 437.71 434.134 440.259 440.967" stroke="#263238" stroke-width="1.52" stroke-linecap="round" stroke-linejoin="round"/>
<path d="M447.74 427.469C446.58 430.865 446.922 434.527 448.696 437.708" stroke="#263238" stroke-width="1.52" stroke-linecap="round" stroke-linejoin="round"/>
<path d="M456.661 422.878C456.661 422.878 454.525 428.569 456.661 433.589" stroke="#263238" stroke-width="1.52" stroke-linecap="round" stroke-linejoin="round"/>
<path d="M382.84 424.167L374.379 433.212C374.379 433.212 382.899 441.48 394.923 444.918C406.947 448.355 428.423 454.193 430.205 460.407" stroke="#263238" stroke-width="1.52" stroke-miterlimit="10"/>
<path d="M330.012 273.031C329.54 273.031 329.158 273.366 329.158 273.778V278.49C329.158 278.903 329.54 279.237 330.012 279.237C330.483 279.237 330.866 278.903 330.866 278.49V273.778C330.866 273.366 330.483 273.031 330.012 273.031Z" fill="#6FCF97"/>
<path d="M332.326 275.006C331.897 275.006 331.549 275.31 331.549 275.685V277.321C331.549 277.696 331.897 278 332.326 278C332.755 278 333.103 277.696 333.103 277.321V275.685C333.103 275.31 332.755 275.006 332.326 275.006Z" fill="#6FCF97"/>
<path d="M331.549 273.993C331.549 273.618 331.897 273.314 332.326 273.314C332.755 273.314 333.103 273.618 333.103 273.993V274.131C333.103 274.507 332.755 274.811 332.326 274.811C331.897 274.811 331.549 274.507 331.549 274.131V273.993Z" fill="#6FCF97"/>
<path d="M334.591 275.352C334.162 275.352 333.814 275.656 333.814 276.032V276.17C333.814 276.545 334.162 276.849 334.591 276.849C335.02 276.849 335.368 276.545 335.368 276.17V276.032C335.368 275.656 335.02 275.352 334.591 275.352Z" fill="#6FCF97"/>
</svg>
